# xmcd
#
# Track frame offsets:
#	183
#	13140
#	23000
#	35663
#	48853
#	60140
#	74310
#	85183
#	97465
#	107748
#	119705
#	132540
#
# Disc length: 1897
#
# Revision: 1
# Processed by: cddbd v1.5.1PL0 Copyright (c) Steve Scherf et al.
# Submitted via: dBpowerAMP V4.0
# Normalized: r0:DSETVAR1,TDELIM( - )
#
DISCID=a607670c
DTITLE=Various Artist - Country and Western Club Vol.4
DYEAR=1900
DGENRE=Country
TTITLE0=Frankie Laine - Moonlight Gambler
TTITLE1=Jim Reeves - Snowflake
TTITLE2=Teresa Brewer - Music Music Music
TTITLE3=Bobby Helms - My Special Angel
TTITLE4=Sonny James - Young Love
TTITLE5=Slim Whitman - Indian Love Call
TTITLE6=George Jones - Tender Years
TTITLE7=Patsy Cline - Crazy
TTITLE8=Conway Twitty - The Story Of My Love
TTITLE9=Mark Dinning - Teen-Angel
TTITLE10=Faron Young - I´m A Free Man Now
TTITLE11=Johnny Cash - ballad Of A Teenage Queen
EXTD=
EXTT0=
EXTT1=
EXTT2=
EXTT3=
EXTT4=
EXTT5=
EXTT6=
EXTT7=
EXTT8=
EXTT9=
EXTT10=
EXTT11=
PLAYORDER=
